<svg width="10" height="7" viewBox="0 0 10 7" fill="none" xmlns="http://www.w3.org/2000/svg">
<rect x="3" width="1" height="1" fill="white"/>
<rect x="3" y="3" width="1" height="1" fill="white"/>
<rect x="2" y="4" width="1" height="1" fill="white"/>
<rect x="2" y="6" width="1" height="1" fill="white"/>
<rect y="6" width="1" height="1" fill="white"/>
<rect x="3" y="6" width="1" height="1" fill="white"/>
<rect x="4" y="6" width="1" height="1" fill="white"/>
<rect x="1" y="5" width="1" height="1" fill="white"/>
<rect x="6" y="5" width="1" height="1" fill="white"/>
<rect x="8" y="2" width="1" height="1" fill="white"/>
<rect x="8" y="3" width="1" height="1" fill="white"/>
<rect x="8" y="4" width="1" height="1" fill="white"/>
<rect x="9" y="3" width="1" height="1" fill="white"/>
<rect x="7" y="3" width="1" height="1" fill="white"/>
<rect x="4" width="1" height="1" fill="white"/>
<rect x="4" y="3" width="1" height="1" fill="white"/>
<rect x="5" y="4" width="1" height="1" fill="white"/>
<rect x="5" y="6" width="1" height="1" fill="white"/>
<rect x="7" y="6" width="1" height="1" fill="white"/>
<rect x="5" y="1" width="1" height="1" fill="white"/>
<rect x="2" y="1" width="1" height="1" fill="white"/>
<rect x="5" y="2" width="1" height="1" fill="white"/>
<rect x="2" y="2" width="1" height="1" fill="white"/>
</svg>
